<mxfile host="app.diagrams.net" modified="2024-04-15T08:24:17.981Z" agent="Mozilla/5.0 (Windows NT 10.0; Win64; x64) AppleWebKit/537.36 (KHTML, like Gecko) Chrome/121.0.0.0 Safari/537.36 OPR/107.0.0.0" etag="NCvkoVVUY4KQSei1hQ0D" version="24.2.5" type="device">
  <diagram id="C5RBs43oDa-KdzZeNtuy" name="Page-1">
    <mxGraphModel dx="2379" dy="898" grid="1" gridSize="10" guides="1" tooltips="1" connect="1" arrows="1" fold="1" page="1" pageScale="1" pageWidth="827" pageHeight="1169" math="0" shadow="0">
      <root>
        <mxCell id="WIyWlLk6GJQsqaUBKTNV-0" />
        <mxCell id="WIyWlLk6GJQsqaUBKTNV-1" parent="WIyWlLk6GJQsqaUBKTNV-0" />
        <mxCell id="zkfFHV4jXpPFQw0GAbJ--0" value="Class:             User" style="swimlane;fontStyle=3;align=center;verticalAlign=top;childLayout=stackLayout;horizontal=1;startSize=30;horizontalStack=0;resizeParent=1;resizeLast=0;collapsible=1;marginBottom=0;rounded=0;shadow=0;strokeWidth=1;" parent="WIyWlLk6GJQsqaUBKTNV-1" vertex="1">
          <mxGeometry x="-400" y="300" width="510" height="230" as="geometry">
            <mxRectangle x="270" y="80" width="160" height="26" as="alternateBounds" />
          </mxGeometry>
        </mxCell>
        <mxCell id="UIaUw-vgJqUekyKVARgq-3" value="" style="group" vertex="1" connectable="0" parent="zkfFHV4jXpPFQw0GAbJ--0">
          <mxGeometry y="30" width="510" height="200" as="geometry" />
        </mxCell>
        <mxCell id="UIaUw-vgJqUekyKVARgq-0" value="&lt;span style=&quot;font-size: 11px;&quot; id=&quot;docs-internal-guid-175e8dfd-7fff-daeb-e495-0b399ed70bd4&quot;&gt;&lt;ul style=&quot;margin-top:0;margin-bottom:0;padding-inline-start:48px;&quot;&gt;&lt;li aria-level=&quot;1&quot; style=&quot;list-style-type: disc; font-family: Roboto, sans-serif; color: rgb(13, 13, 13); background-color: transparent; font-variant-numeric: normal; font-variant-east-asian: normal; font-variant-alternates: normal; font-variant-position: normal; vertical-align: baseline; white-space: pre;&quot; dir=&quot;ltr&quot;&gt;&lt;p role=&quot;presentation&quot; style=&quot;line-height:1.38;background-color:#ffffff;margin-top:15pt;margin-bottom:0pt;&quot; dir=&quot;ltr&quot;&gt;&lt;span style=&quot;background-color: transparent; font-variant-numeric: normal; font-variant-east-asian: normal; font-variant-alternates: normal; font-variant-position: normal; vertical-align: baseline; text-wrap: wrap;&quot;&gt;User Interface&amp;nbsp;&lt;/span&gt;&lt;/p&gt;&lt;/li&gt;&lt;li aria-level=&quot;1&quot; style=&quot;list-style-type: disc; font-family: Roboto, sans-serif; color: rgb(13, 13, 13); background-color: transparent; font-variant-numeric: normal; font-variant-east-asian: normal; font-variant-alternates: normal; font-variant-position: normal; vertical-align: baseline; white-space: pre;&quot; dir=&quot;ltr&quot;&gt;&lt;p role=&quot;presentation&quot; style=&quot;line-height:1.38;background-color:#ffffff;margin-top:0pt;margin-bottom:0pt;padding:0pt 0pt 15pt 0pt;&quot; dir=&quot;ltr&quot;&gt;&lt;span style=&quot;background-color: transparent; font-variant-numeric: normal; font-variant-east-asian: normal; font-variant-alternates: normal; font-variant-position: normal; vertical-align: baseline; text-wrap: wrap;&quot;&gt;Database&amp;nbsp;&lt;/span&gt;&lt;/p&gt;&lt;/li&gt;&lt;li aria-level=&quot;1&quot; style=&quot;list-style-type: disc; font-family: Roboto, sans-serif; color: rgb(13, 13, 13); background-color: transparent; font-variant-numeric: normal; font-variant-east-asian: normal; font-variant-alternates: normal; font-variant-position: normal; vertical-align: baseline; white-space: pre;&quot; dir=&quot;ltr&quot;&gt;&lt;p role=&quot;presentation&quot; style=&quot;line-height:1.38;background-color:#ffffff;margin-top:0pt;margin-bottom:0pt;padding:0pt 0pt 15pt 0pt;&quot; dir=&quot;ltr&quot;&gt;&lt;span style=&quot;background-color: transparent; text-wrap: wrap;&quot;&gt;InteractionProfiles&lt;/span&gt;&lt;/p&gt;&lt;/li&gt;&lt;/ul&gt;&lt;/span&gt;" style="rounded=0;whiteSpace=wrap;html=1;align=left;" vertex="1" parent="UIaUw-vgJqUekyKVARgq-3">
          <mxGeometry x="360" width="150" height="200" as="geometry" />
        </mxCell>
        <mxCell id="UIaUw-vgJqUekyKVARgq-1" value="&lt;span style=&quot;font-size: 11px;&quot; id=&quot;docs-internal-guid-19eefea2-7fff-f8da-161d-df3030c446a2&quot;&gt;&lt;ul style=&quot;margin-top:0;margin-bottom:0;padding-inline-start:48px;&quot;&gt;&lt;li aria-level=&quot;1&quot; style=&quot;list-style-type: disc; font-family: Arial, sans-serif; color: rgb(13, 13, 13); background-color: transparent; font-variant-numeric: normal; font-variant-east-asian: normal; font-variant-alternates: normal; font-variant-position: normal; vertical-align: baseline; white-space: pre;&quot; dir=&quot;ltr&quot;&gt;&lt;p role=&quot;presentation&quot; style=&quot;line-height:1.38;background-color:#ffffff;margin-top:15pt;margin-bottom:0pt;&quot; dir=&quot;ltr&quot;&gt;&lt;span style=&quot;background-color: transparent; font-variant-numeric: normal; font-variant-east-asian: normal; font-variant-alternates: normal; font-variant-position: normal; vertical-align: baseline; text-wrap: wrap;&quot;&gt;Store user information such as name, age, location, and preferences.&lt;/span&gt;&lt;/p&gt;&lt;/li&gt;&lt;li aria-level=&quot;1&quot; style=&quot;list-style-type: disc; font-family: Arial, sans-serif; color: rgb(13, 13, 13); background-color: transparent; font-variant-numeric: normal; font-variant-east-asian: normal; font-variant-alternates: normal; font-variant-position: normal; vertical-align: baseline; white-space: pre;&quot; dir=&quot;ltr&quot;&gt;&lt;p role=&quot;presentation&quot; style=&quot;line-height:1.38;background-color:#ffffff;margin-top:0pt;margin-bottom:0pt;&quot; dir=&quot;ltr&quot;&gt;&lt;span style=&quot;background-color: transparent; font-variant-numeric: normal; font-variant-east-asian: normal; font-variant-alternates: normal; font-variant-position: normal; vertical-align: baseline; text-wrap: wrap;&quot;&gt;Manage the user&#39;s profile.&lt;/span&gt;&lt;/p&gt;&lt;/li&gt;&lt;li aria-level=&quot;1&quot; style=&quot;list-style-type: disc; font-family: Arial, sans-serif; color: rgb(13, 13, 13); background-color: transparent; font-variant-numeric: normal; font-variant-east-asian: normal; font-variant-alternates: normal; font-variant-position: normal; vertical-align: baseline; white-space: pre;&quot; dir=&quot;ltr&quot;&gt;&lt;p role=&quot;presentation&quot; style=&quot;line-height:1.38;background-color:#ffffff;margin-top:0pt;margin-bottom:0pt;padding:0pt 0pt 15pt 0pt;&quot; dir=&quot;ltr&quot;&gt;&lt;span style=&quot;background-color: transparent; font-variant-numeric: normal; font-variant-east-asian: normal; font-variant-alternates: normal; font-variant-position: normal; vertical-align: baseline; text-wrap: wrap;&quot;&gt;Handle user authentication (sign in and sign up).&lt;/span&gt;&lt;/p&gt;&lt;/li&gt;&lt;li aria-level=&quot;1&quot; style=&quot;list-style-type: disc; font-family: Arial, sans-serif; color: rgb(13, 13, 13); background-color: transparent; font-variant-numeric: normal; font-variant-east-asian: normal; font-variant-alternates: normal; font-variant-position: normal; vertical-align: baseline; white-space: pre;&quot; dir=&quot;ltr&quot;&gt;&lt;p role=&quot;presentation&quot; style=&quot;line-height:1.38;background-color:#ffffff;margin-top:0pt;margin-bottom:0pt;&quot; dir=&quot;ltr&quot;&gt;&lt;span style=&quot;background-color: transparent; font-variant-numeric: normal; font-variant-east-asian: normal; font-variant-alternates: normal; font-variant-position: normal; vertical-align: baseline; text-wrap: wrap;&quot;&gt;Interact with other users, including swiping profiles, handling matches, and sending messages.&lt;/span&gt;&lt;/p&gt;&lt;/li&gt;&lt;/ul&gt;&lt;/span&gt;" style="rounded=0;whiteSpace=wrap;html=1;align=left;" vertex="1" parent="UIaUw-vgJqUekyKVARgq-3">
          <mxGeometry width="360" height="200" as="geometry" />
        </mxCell>
        <mxCell id="UIaUw-vgJqUekyKVARgq-4" value="Class:            Profile" style="swimlane;fontStyle=3;align=center;verticalAlign=top;childLayout=stackLayout;horizontal=1;startSize=30;horizontalStack=0;resizeParent=1;resizeLast=0;collapsible=1;marginBottom=0;rounded=0;shadow=0;strokeWidth=1;" vertex="1" parent="WIyWlLk6GJQsqaUBKTNV-1">
          <mxGeometry x="190" y="40" width="510" height="230" as="geometry">
            <mxRectangle x="440" y="80" width="160" height="26" as="alternateBounds" />
          </mxGeometry>
        </mxCell>
        <mxCell id="UIaUw-vgJqUekyKVARgq-5" value="" style="group" vertex="1" connectable="0" parent="UIaUw-vgJqUekyKVARgq-4">
          <mxGeometry y="30" width="510" height="200" as="geometry" />
        </mxCell>
        <mxCell id="UIaUw-vgJqUekyKVARgq-6" value="" style="rounded=0;whiteSpace=wrap;html=1;align=left;" vertex="1" parent="UIaUw-vgJqUekyKVARgq-5">
          <mxGeometry x="360" width="150" height="200" as="geometry" />
        </mxCell>
        <mxCell id="UIaUw-vgJqUekyKVARgq-7" value="&lt;span style=&quot;font-size: 11px;&quot; id=&quot;docs-internal-guid-19eefea2-7fff-f8da-161d-df3030c446a2&quot;&gt;&lt;ul style=&quot;margin-top:0;margin-bottom:0;padding-inline-start:48px;&quot;&gt;&lt;li aria-level=&quot;1&quot; style=&quot;list-style-type: disc; font-family: Arial, sans-serif; color: rgb(13, 13, 13); background-color: transparent; font-variant-numeric: normal; font-variant-east-asian: normal; font-variant-alternates: normal; font-variant-position: normal; vertical-align: baseline; white-space: pre;&quot; dir=&quot;ltr&quot;&gt;&lt;p role=&quot;presentation&quot; style=&quot;line-height:1.38;background-color:#ffffff;margin-top:15pt;margin-bottom:0pt;&quot; dir=&quot;ltr&quot;&gt;&lt;span id=&quot;docs-internal-guid-dfe70ae2-7fff-43de-6a88-292107e1b829&quot;&gt;&lt;/span&gt;&lt;/p&gt;&lt;ul style=&quot;margin-top:0;margin-bottom:0;padding-inline-start:48px;&quot;&gt;&lt;li aria-level=&quot;1&quot; style=&quot;list-style-type:disc;font-size:12pt;font-family:Roboto,sans-serif;color:#0d0d0d;background-color:transparent;font-weight:400;font-style:normal;font-variant:normal;text-decoration:none;vertical-align:baseline;white-space:pre;&quot; dir=&quot;ltr&quot;&gt;&lt;p role=&quot;presentation&quot; style=&quot;line-height:1.38;background-color:#ffffff;margin-top:15pt;margin-bottom:0pt;padding:0pt 0pt 15pt 0pt;&quot; dir=&quot;ltr&quot;&gt;&lt;span style=&quot;font-size:12pt;font-family:Roboto,sans-serif;color:#0d0d0d;background-color:transparent;font-weight:400;font-style:normal;font-variant:normal;text-decoration:none;vertical-align:baseline;white-space:pre;white-space:pre-wrap;&quot;&gt;Store profile information such as photos, description, and interests.&lt;/span&gt;&lt;/p&gt;&lt;/li&gt;&lt;li aria-level=&quot;1&quot; style=&quot;list-style-type:disc;font-size:12pt;font-family:Roboto,sans-serif;color:#0d0d0d;background-color:transparent;font-weight:400;font-style:normal;font-variant:normal;text-decoration:none;vertical-align:baseline;white-space:pre;&quot; dir=&quot;ltr&quot;&gt;&lt;p role=&quot;presentation&quot; style=&quot;line-height:1.38;background-color:#ffffff;margin-top:0pt;margin-bottom:0pt;&quot; dir=&quot;ltr&quot;&gt;&lt;span style=&quot;font-size:12pt;font-family:Roboto,sans-serif;color:#0d0d0d;background-color:transparent;font-weight:400;font-style:normal;font-variant:normal;text-decoration:none;vertical-align:baseline;white-space:pre;white-space:pre-wrap;&quot;&gt;Provide methods for updating and accessing profile information&lt;/span&gt;&lt;/p&gt;&lt;/li&gt;&lt;/ul&gt;&lt;/li&gt;&lt;/ul&gt;&lt;/span&gt;" style="rounded=0;whiteSpace=wrap;html=1;align=left;" vertex="1" parent="UIaUw-vgJqUekyKVARgq-5">
          <mxGeometry width="360" height="200" as="geometry" />
        </mxCell>
        <mxCell id="UIaUw-vgJqUekyKVARgq-8" value="Class:             InteractionProfiles" style="swimlane;fontStyle=1;align=center;verticalAlign=top;childLayout=stackLayout;horizontal=1;startSize=30;horizontalStack=0;resizeParent=1;resizeLast=0;collapsible=1;marginBottom=0;rounded=0;shadow=0;strokeWidth=1;" vertex="1" parent="WIyWlLk6GJQsqaUBKTNV-1">
          <mxGeometry x="-400" y="40" width="510" height="230" as="geometry">
            <mxRectangle x="100" y="80" width="160" height="26" as="alternateBounds" />
          </mxGeometry>
        </mxCell>
        <mxCell id="UIaUw-vgJqUekyKVARgq-9" value="" style="group" vertex="1" connectable="0" parent="UIaUw-vgJqUekyKVARgq-8">
          <mxGeometry y="30" width="510" height="200" as="geometry" />
        </mxCell>
        <mxCell id="UIaUw-vgJqUekyKVARgq-10" value="&lt;span style=&quot;&quot; id=&quot;docs-internal-guid-175e8dfd-7fff-daeb-e495-0b399ed70bd4&quot;&gt;&lt;ul style=&quot;margin-top: 0px; margin-bottom: 0px; padding-inline-start: 48px;&quot;&gt;&lt;li aria-level=&quot;1&quot; style=&quot;font-size: 11px; list-style-type: disc; font-family: Roboto, sans-serif; color: rgb(13, 13, 13); background-color: transparent; font-variant-numeric: normal; font-variant-east-asian: normal; font-variant-alternates: normal; font-variant-position: normal; vertical-align: baseline; white-space: pre;&quot; dir=&quot;ltr&quot;&gt;&lt;p role=&quot;presentation&quot; style=&quot;line-height:1.38;background-color:#ffffff;margin-top:15pt;margin-bottom:0pt;&quot; dir=&quot;ltr&quot;&gt;&lt;span style=&quot;font-family: Söhne, ui-sans-serif, system-ui, -apple-system, &amp;quot;Segoe UI&amp;quot;, Roboto, Ubuntu, Cantarell, &amp;quot;Noto Sans&amp;quot;, sans-serif, &amp;quot;Helvetica Neue&amp;quot;, Arial, &amp;quot;Apple Color Emoji&amp;quot;, &amp;quot;Segoe UI Emoji&amp;quot;, &amp;quot;Segoe UI Symbol&amp;quot;, &amp;quot;Noto Color Emoji&amp;quot;; font-size: 16px; text-wrap: wrap;&quot;&gt;Database &lt;/span&gt;&lt;br&gt;&lt;/p&gt;&lt;/li&gt;&lt;li aria-level=&quot;1&quot; style=&quot;list-style-type: disc; color: rgb(13, 13, 13); background-color: transparent; font-variant-numeric: normal; font-variant-east-asian: normal; font-variant-alternates: normal; font-variant-position: normal; vertical-align: baseline; white-space-collapse: preserve;&quot; dir=&quot;ltr&quot;&gt;&lt;p role=&quot;presentation&quot; style=&quot;line-height: 1.38; background-color: rgb(255, 255, 255); margin-top: 15pt; margin-bottom: 0pt;&quot; dir=&quot;ltr&quot;&gt;&lt;font face=&quot;Söhne, ui-sans-serif, system-ui, -apple-system, Segoe UI, Roboto, Ubuntu, Cantarell, Noto Sans, sans-serif, Helvetica Neue, Arial, Apple Color Emoji, Segoe UI Emoji, Segoe UI Symbol, Noto Color Emoji&quot;&gt;&lt;span style=&quot;font-size: 16px;&quot;&gt;User&lt;/span&gt;&lt;/font&gt;&lt;/p&gt;&lt;/li&gt;&lt;/ul&gt;&lt;/span&gt;" style="rounded=0;whiteSpace=wrap;html=1;align=left;" vertex="1" parent="UIaUw-vgJqUekyKVARgq-9">
          <mxGeometry x="360" width="150" height="200" as="geometry" />
        </mxCell>
        <mxCell id="UIaUw-vgJqUekyKVARgq-11" value="&lt;span style=&quot;font-size: 11px;&quot; id=&quot;docs-internal-guid-19eefea2-7fff-f8da-161d-df3030c446a2&quot;&gt;&lt;ul style=&quot;margin-top:0;margin-bottom:0;padding-inline-start:48px;&quot;&gt;&lt;li aria-level=&quot;1&quot; style=&quot;list-style-type: disc; font-family: Arial, sans-serif; color: rgb(13, 13, 13); background-color: transparent; font-variant-numeric: normal; font-variant-east-asian: normal; font-variant-alternates: normal; font-variant-position: normal; vertical-align: baseline; white-space: pre;&quot; dir=&quot;ltr&quot;&gt;&lt;span style=&quot;background-color: transparent; font-family: Roboto, sans-serif; font-size: 12pt; white-space: normal; color: rgb(0, 0, 0);&quot;&gt;Manage interactions between users, including matching, messaging, and displaying suggested profiles.&lt;/span&gt;&lt;br&gt;&lt;/li&gt;&lt;li&gt;&lt;span style=&quot;background-color: transparent; font-family: Roboto, sans-serif; font-size: 12pt; text-wrap: wrap;&quot;&gt;Handle the creation and management of matches.&lt;/span&gt;&lt;br&gt;&lt;/li&gt;&lt;li&gt;&lt;span style=&quot;background-color: transparent; font-family: Roboto, sans-serif; font-size: 12pt; text-wrap: wrap;&quot;&gt;&lt;br&gt;&lt;/span&gt;&lt;/li&gt;&lt;li&gt;&lt;span style=&quot;background-color: transparent; font-family: Roboto, sans-serif; font-size: 12pt; text-wrap: wrap;&quot;&gt;Facilitate messaging between matched users.&lt;/span&gt;&lt;br&gt;&lt;/li&gt;&lt;/ul&gt;&lt;/span&gt;" style="rounded=0;whiteSpace=wrap;html=1;align=left;" vertex="1" parent="UIaUw-vgJqUekyKVARgq-9">
          <mxGeometry width="360" height="200" as="geometry" />
        </mxCell>
        <mxCell id="UIaUw-vgJqUekyKVARgq-12" value="Class:             DataBase" style="swimlane;fontStyle=1;align=center;verticalAlign=top;childLayout=stackLayout;horizontal=1;startSize=30;horizontalStack=0;resizeParent=1;resizeLast=0;collapsible=1;marginBottom=0;rounded=0;shadow=0;strokeWidth=1;" vertex="1" parent="WIyWlLk6GJQsqaUBKTNV-1">
          <mxGeometry x="190" y="310" width="570" height="230" as="geometry">
            <mxRectangle x="270" y="130" width="160" height="26" as="alternateBounds" />
          </mxGeometry>
        </mxCell>
        <mxCell id="UIaUw-vgJqUekyKVARgq-13" value="" style="group" vertex="1" connectable="0" parent="UIaUw-vgJqUekyKVARgq-12">
          <mxGeometry y="30" width="570" height="200" as="geometry" />
        </mxCell>
        <mxCell id="UIaUw-vgJqUekyKVARgq-14" value="&lt;span style=&quot;font-size: 16px;&quot; id=&quot;docs-internal-guid-175e8dfd-7fff-daeb-e495-0b399ed70bd4&quot;&gt;&lt;ul style=&quot;margin-top: 0px; margin-bottom: 0px; padding-inline-start: 48px;&quot;&gt;&lt;li aria-level=&quot;1&quot; style=&quot;list-style-type: disc; color: rgb(13, 13, 13); background-color: transparent; font-variant-numeric: normal; font-variant-east-asian: normal; font-variant-alternates: normal; font-variant-position: normal; vertical-align: baseline; white-space-collapse: preserve;&quot; dir=&quot;ltr&quot;&gt;&lt;p role=&quot;presentation&quot; style=&quot;line-height: 1.38; background-color: rgb(255, 255, 255); margin-top: 15pt; margin-bottom: 0pt;&quot; dir=&quot;ltr&quot;&gt;&lt;font face=&quot;Söhne, ui-sans-serif, system-ui, -apple-system, Segoe UI, Roboto, Ubuntu, Cantarell, Noto Sans, sans-serif, Helvetica Neue, Arial, Apple Color Emoji, Segoe UI Emoji, Segoe UI Symbol, Noto Color Emoji&quot;&gt;User&lt;/font&gt;&lt;/p&gt;&lt;/li&gt;&lt;li aria-level=&quot;1&quot; style=&quot;list-style-type: disc; color: rgb(13, 13, 13); background-color: transparent; font-variant-numeric: normal; font-variant-east-asian: normal; font-variant-alternates: normal; font-variant-position: normal; vertical-align: baseline; white-space-collapse: preserve;&quot; dir=&quot;ltr&quot;&gt;&lt;p role=&quot;presentation&quot; style=&quot;line-height: 1.38; background-color: rgb(255, 255, 255); margin-top: 15pt; margin-bottom: 0pt;&quot; dir=&quot;ltr&quot;&gt;&lt;font face=&quot;Söhne, ui-sans-serif, system-ui, -apple-system, Segoe UI, Roboto, Ubuntu, Cantarell, Noto Sans, sans-serif, Helvetica Neue, Arial, Apple Color Emoji, Segoe UI Emoji, Segoe UI Symbol, Noto Color Emoji&quot;&gt;InteractioProfiles&lt;/font&gt;&lt;/p&gt;&lt;/li&gt;&lt;li aria-level=&quot;1&quot; style=&quot;list-style-type: disc; color: rgb(13, 13, 13); background-color: transparent; font-variant-numeric: normal; font-variant-east-asian: normal; font-variant-alternates: normal; font-variant-position: normal; vertical-align: baseline; white-space-collapse: preserve;&quot; dir=&quot;ltr&quot;&gt;&lt;p role=&quot;presentation&quot; style=&quot;line-height: 1.38; background-color: rgb(255, 255, 255); margin-top: 15pt; margin-bottom: 0pt;&quot; dir=&quot;ltr&quot;&gt;&lt;font face=&quot;Söhne, ui-sans-serif, system-ui, -apple-system, Segoe UI, Roboto, Ubuntu, Cantarell, Noto Sans, sans-serif, Helvetica Neue, Arial, Apple Color Emoji, Segoe UI Emoji, Segoe UI Symbol, Noto Color Emoji&quot;&gt;User Interface&lt;/font&gt;&lt;/p&gt;&lt;/li&gt;&lt;/ul&gt;&lt;/span&gt;" style="rounded=0;whiteSpace=wrap;html=1;align=left;" vertex="1" parent="UIaUw-vgJqUekyKVARgq-13">
          <mxGeometry x="402.3529411764706" width="167.64705882352942" height="200" as="geometry" />
        </mxCell>
        <mxCell id="UIaUw-vgJqUekyKVARgq-15" value="&lt;span style=&quot;font-size: 11px;&quot; id=&quot;docs-internal-guid-19eefea2-7fff-f8da-161d-df3030c446a2&quot;&gt;&lt;ul style=&quot;margin-top:0;margin-bottom:0;padding-inline-start:48px;&quot;&gt;&lt;li&gt;&lt;span style=&quot;font-size: 11px;&quot; id=&quot;docs-internal-guid-19eefea2-7fff-f8da-161d-df3030c446a2&quot;&gt;&lt;span style=&quot;background-color: transparent; font-size: 12pt; white-space-collapse: preserve; color: rgb(13, 13, 13); font-family: Roboto, sans-serif;&quot;&gt;Store and manage user data, including user profiles and authentication credentials.&lt;/span&gt;&lt;/span&gt;&lt;/li&gt;&lt;li&gt;&lt;span style=&quot;font-size: 11px;&quot; id=&quot;docs-internal-guid-19eefea2-7fff-f8da-161d-df3030c446a2&quot;&gt;&lt;span style=&quot;background-color: transparent; font-size: 12pt; white-space-collapse: preserve; color: rgb(13, 13, 13); font-family: Roboto, sans-serif;&quot;&gt;Provide methods for adding, retrieving, and updating user information.&lt;/span&gt;&lt;/span&gt;&lt;/li&gt;&lt;/ul&gt;&lt;/span&gt;" style="rounded=0;whiteSpace=wrap;html=1;align=left;" vertex="1" parent="UIaUw-vgJqUekyKVARgq-13">
          <mxGeometry width="402.3529411764706" height="200" as="geometry" />
        </mxCell>
        <mxCell id="UIaUw-vgJqUekyKVARgq-16" value="Class:            User Interface" style="swimlane;fontStyle=1;align=center;verticalAlign=top;childLayout=stackLayout;horizontal=1;startSize=30;horizontalStack=0;resizeParent=1;resizeLast=0;collapsible=1;marginBottom=0;rounded=0;shadow=0;strokeWidth=1;" vertex="1" parent="WIyWlLk6GJQsqaUBKTNV-1">
          <mxGeometry x="-400" y="560" width="510" height="230" as="geometry">
            <mxRectangle x="180" y="310" width="160" height="26" as="alternateBounds" />
          </mxGeometry>
        </mxCell>
        <mxCell id="UIaUw-vgJqUekyKVARgq-17" value="" style="group" vertex="1" connectable="0" parent="UIaUw-vgJqUekyKVARgq-16">
          <mxGeometry y="30" width="510" height="200" as="geometry" />
        </mxCell>
        <mxCell id="UIaUw-vgJqUekyKVARgq-18" value="&lt;ul&gt;&lt;li&gt;All classes&lt;/li&gt;&lt;/ul&gt;" style="rounded=0;whiteSpace=wrap;html=1;align=left;" vertex="1" parent="UIaUw-vgJqUekyKVARgq-17">
          <mxGeometry x="360" width="150" height="200" as="geometry" />
        </mxCell>
        <mxCell id="UIaUw-vgJqUekyKVARgq-19" value="&lt;span style=&quot;font-size: 11px;&quot; id=&quot;docs-internal-guid-19eefea2-7fff-f8da-161d-df3030c446a2&quot;&gt;&lt;div&gt;&lt;font face=&quot;Arial, sans-serif&quot; color=&quot;#0d0d0d&quot;&gt;&lt;span style=&quot;white-space: pre;&quot;&gt;&lt;br&gt;&lt;/span&gt;&lt;/font&gt;&lt;/div&gt;&lt;ul style=&quot;margin-top:0;margin-bottom:0;padding-inline-start:48px;&quot;&gt;&lt;li&gt;&lt;p style=&quot;font-family: Roboto, sans-serif; font-size: 12pt; line-height: 1.38; background-color: rgb(255, 255, 255); margin-top: 15pt; margin-bottom: 0pt; padding: 0pt 0pt 15pt; display: inline !important;&quot; role=&quot;presentation&quot; dir=&quot;ltr&quot;&gt;&lt;span style=&quot;background-color: transparent; font-size: 12pt; text-wrap: wrap;&quot;&gt;Provide the interface for user interaction, including signing in, signing up, viewing profiles, swiping profiles, and messaging.&lt;/span&gt;&lt;span id=&quot;docs-internal-guid-1291eb1f-7fff-811d-e70a-1d9e403bef52&quot;&gt;&lt;/span&gt;&lt;/p&gt;&lt;/li&gt;&lt;li&gt;&lt;span style=&quot;background-color: transparent; font-size: 12pt; text-wrap: wrap; font-family: Roboto, sans-serif;&quot;&gt;Handle user input and display output to the user.&lt;/span&gt;&lt;br&gt;&lt;/li&gt;&lt;/ul&gt;&lt;/span&gt;" style="rounded=0;whiteSpace=wrap;html=1;align=left;" vertex="1" parent="UIaUw-vgJqUekyKVARgq-17">
          <mxGeometry width="360" height="200" as="geometry" />
        </mxCell>
      </root>
    </mxGraphModel>
  </diagram>
</mxfile>
